# xmcd
#
# Track frame offsets:
#	150
#	13346
#	26064
#	37748
#	50976
#	61408
#	73447
#	83695
#	94397
#	108306
#	127644
#	140479
#
# Disc length: 2065 seconds
#
# Revision: 1
# Processed by: cddbd v1.5.2PL0 Copyright (c) Steve Scherf et al.
# Submitted via: audiograbber 1.83.01
#
DISCID=a8080f0c
DTITLE=OLD MAN MARKLEY - GUTS N' TEETH
DYEAR=2010
DGENRE=
TTITLE0=For Better For Worse
TTITLE1=At the Bottom
TTITLE2=Running Weight
TTITLE3=Guts n' Teeth
TTITLE4=Do me Like You Do
TTITLE5=Killing Time
TTITLE6=Song Songs
TTITLE7=In a Circle Going Round
TTITLE8=Letterman
TTITLE9=Lowdown Blues
TTITLE10=Living and Learning
TTITLE11=Struggling
EXTD=
EXTT0=
EXTT1=
EXTT2=
EXTT3=
EXTT4=
EXTT5=
EXTT6=
EXTT7=
EXTT8=
EXTT9=
EXTT10=
EXTT11=
PLAYORDER=
